/* XPM */
static char * next_t_xpm[] = {
"32 32 3 1",
".	c None",
"+	c #000000",
"o	c Red",      
"................................",
"...o........................o...",
"..ooo......................ooo..",
".ooooo....................ooooo.",
"..ooooo......++++++......ooooo..",
"...ooooo..+++++++++++...ooooo...",
"....ooooo++++++++++++..ooooo....",
".....ooooo+++.........ooooo.....",
"......ooooo..........ooooo......",
"......+ooooo........ooooo+......",
".....+++ooooo......ooooo+++.....",
".....+++.ooooo....ooooo.+++.....",
".....+++..ooooo..ooooo.+++++....",
"....+++....oooooooooo..+++++....",
"....+++.....oooooooo..+++++++...",
"....+++......oooooo...+++++++...",
"....+++......oooooo..+++++++++..",
"....+++.....oooooooo.+++++++++..",
"....+++....oooooooooo++++++++++.",
".....+++..ooooo..ooooo..+++.....",
".....+++.ooooo....ooooo.+++.....",
".....+++ooooo......ooooo+++.....",
"......+ooooo........ooooo+......",
"......ooooo..........ooooo......",
".....ooooo+++......+++ooooo.....",
"....ooooo++++++++++++++ooooo....",
"...ooooo..++++++++++++..ooooo...",
"..ooooo......++++++......ooooo..",
".ooooo....................ooooo.",
"..ooo......................ooo..",
"...o........................o...",
"................................"
};
