/* XPM */
static char * next_t_xpm[] = {
"32 32 2 1",
".	c None",
"+	c #000000",
"................................",
"................................",
"................................",
"................................",
".............++++++.............",
"..........+++++++++++...........",
"........+++++++++++++...........",
".......++++++...................",
"......++++...............+......",
"......+++................+......",
".....+++................+++.....",
".....+++................+++.....",
".....+++...............+++++....",
"....+++................+++++....",
"....+++...............+++++++...",
"....+++...............+++++++...",
"....+++..............+++++++++..",
"....+++..............+++++++++..",
"....+++.............+++++++++++.",
".....+++................+++.....",
".....+++................+++.....",
".....+++................+++.....",
"......+++..............+++......",
"......++++............++++......",
".......++++++......++++++.......",
"........++++++++++++++++........",
"..........++++++++++++..........",
".............++++++.............",
"................................",
"................................",
"................................",
"................................"
};
