/* XPM */ 
static char * four_xpm[] = {
"64 64 201 2",
"  	c None",
"! 	c white",
"# 	c #D1D1D2",
"$ 	c #010003",
"% 	c #2F2E30",
"& 	c #FFFEFE",
"' 	c #FEFEFE",
"( 	c #FCFBFB",
") 	c #FBFAFA",
"* 	c #FAF9F9",
"+ 	c #FAF8F8",
", 	c #F9F7F7",
"- 	c #FCFAFA",
". 	c #DCC1C1",
"/ 	c #A96363",
"0 	c #770000",
"1 	c #CA9D9D",
"2 	c #780000",
"3 	c #7C0000",
"4 	c #FEFDFD",
"5 	c #CC9D9D",
"6 	c #7D0000",
"7 	c #810000",
"8 	c #FBF9F9",
"9 	c #CE9E9E",
": 	c #830000",
"; 	c #FDFCFC",
"< 	c #870000",
"= 	c #D4A2A2",
"> 	c #880000",
"? 	c #8D0100",
"@ 	c #D6A3A2",
"A 	c #8E0200",
"B 	c #920700",
"C 	c #D8A5A2",
"D 	c #940900",
"E 	c #990E00",
"F 	c #DBA8A2",
"G 	c #9C1100",
"H 	c #9F1500",
"I 	c #DDAAA2",
"J 	c #A21700",
"K 	c #A51C00",
"L 	c #DFADA2",
"M 	c #A71E00",
"N 	c #AA2200",
"O 	c #E1AFA2",
"P 	c #AD2500",
"Q 	c #AF2700",
"R 	c #E3B2A2",
"S 	c #B22B00",
"T 	c #B42D00",
"U 	c #E5B4A2",
"V 	c #B73100",
"W 	c #FDFDFD",
"X 	c #E9E8E8",
"Y 	c #969495",
"Z 	c #A8A7A7",
"[ 	c #C24F24",
"\ 	c #B93300",
"] 	c #E6B5A2",
"^ 	c #BB3501",
"_ 	c #F8F3F2",
"` 	c #D78A6D",
"a 	c #BC3603",
"b 	c #E8B7A5",
"c 	c #C03A07",
"d 	c #D27553",
"e 	c #C13B09",
"f 	c #E9B8A6",
"g 	c #C33D0C",
"h 	c #C95126",
"i 	c #CF643C",
"j 	c #C43F0D",
"k 	c #E9B9A7",
"l 	c #EDCFC4",
"m 	c #F6EDEA",
"n 	c #D6CEF5",
"o 	c #CAC0F4",
"p 	c #EDE9F6",
"q 	c #C84D1E",
"r 	c #F6E3DC",
"s 	c #E7B29E",
"t 	c #B3A5F3",
"u 	c #3E1CED",
"v 	c #4A2AEE",
"w 	c #6D53F0",
"x 	c #A797F3",
"y 	c #9C8AF2",
"z 	c #7961F0",
"{ 	c #846EF1",
"| 	c #CCCCCD",
"} 	c #EFEEEE",
"~ 	c #BEB2F4",
" !	c #E2DCF6",
"!!	c #6145EF",
"#!	c #E3E3E3",
"$!	c #907CF1",
"%!	c #757476",
"&!	c #343335",
"'!	c #EAE8E9",
"(!	c #909091",
")!	c #5537EE",
"*!	c #FCFCFC",
"+!	c #B67979",
",!	c #760000",
"-!	c #9E4A4A",
".!	c #F5ECEC",
"/!	c #740000",
"0!	c #BC8787",
"1!	c #E4CECE",
"2!	c #790000",
"3!	c #7C0505",
"4!	c #F7F2F2",
"5!	c #A54F4F",
"6!	c #D0A7A7",
"7!	c #ECDCDC",
"8!	c #8C1717",
"9!	c #800000",
":!	c #942929",
";!	c #B36363",
"<!	c #8C0E0E",
"=!	c #A64646",
">!	c #9D3333",
"?!	c #850000",
"@!	c #921C1C",
"A!	c #C48787",
"B!	c #D8AFAF",
"C!	c #D9ACAC",
"D!	c #C17979",
"E!	c #890000",
"F!	c #CD9494",
"G!	c #8A0000",
"H!	c #AE5050",
"I!	c #BE7170",
"J!	c #910A09",
"K!	c #8F0300",
"L!	c #A83C3A",
"M!	c #D19A99",
"N!	c #D9ACAA",
"O!	c #AF4C48",
"P!	c #910600",
"Q!	c #FDFAFA",
"R!	c #C37774",
"S!	c #8B8B8C",
"T!	c #9C170E",
"U!	c #960A00",
"V!	c #F3E4E3",
"W!	c #D19490",
"X!	c #9B1000",
"Y!	c #A01600",
"Z!	c #CD8479",
"[!	c #AF3C2A",
"\!	c #E8C8C3",
"]!	c #F7EAE8",
"^!	c #A31900",
"_!	c #EDD1CC",
"`!	c #CD8274",
"a!	c #D5968B",
"b!	c #EFD6D1",
"c!	c #EDD2CC",
"d!	c #D18979",
"e!	c #AE2600",
"f!	c #F9EFEC",
"g!	c #AB2300",
"h!	c #DDA799",
"i!	c #C05B41",
"j!	c #DCA394",
"k!	c #B32C00",
"l!	c #B53713",
"m!	c #F5E4DF",
"n!	c #FBF3F1",
"o!	c #CA6946",
"p!	c #B63000",
"q!	c #C3552E",
"r!	c #B73405",
"s!	c #BE3906",
"t!	c #FEFBFA",
"u!	c #D78C6F",
"v!	c #C6582E",
"w!	c #F0D2C7",
"x!	c #C23C0A",
"y!	c #C95E35",
"z!	c #C04111",
"{!	c #BD3A08",
"|!	c #CA5A30",
"}!	c #F0D1C5",
"~!	c #FAF0ED",
" #	c #EBC2B2",
"!#	c #C64C1D",
"##	c #F5DFD7",
"$#	c #F4DCD3",
"%#	c #E5AB96",
"&#	c #FDF8F6",
"'#	c #F8E7E1",
"(#	c #E09A80",
")#	c #E2A188",
"*#	c #D0653D",
"+#	c #CD5B30",
",#	c #DE9376",
"-#	c #FBF1ED",
"! ! ! ! ! ! ! ! ! ! ! ! ! ! ! ! ! ! ! ! ! ! ! ! ! ! ! ! ! ! # $ % ! ! ! ! ! ! ! ! ! ! ! ! ! ! ! ! ! ! ! ! ! ! ! ! ! ! ! ! ! ! ! "
"! ! ! ! ! ! ! ! ! ! ! ! ! ! ! ! ! ! ! ! ! ! ! ! ! ! ! ! ! ! # $ % ! ! ! ! ! ! ! ! ! ! ! ! ! ! ! ! ! ! ! ! ! ! ! ! ! ! ! ! ! ! ! "
"! ! ! ! ! ! ! ! ! ! & ' ' & ' ' ' ' ' & ! ! ! ! ! ! ! ! ! ! # $ % ! ! ! ! ! ! ! ! ! ! ! ! ! ! ! ! ! ! ! ! ! ! ! ! ! ! ! ! ! ! ! "
"! ! ! & ( ) ) * + , , , , , , , , , , , , ) ' ! ! ! ! ! ! ! # $ % ! ! ! ! ! ! ! ! ! ! ! ! ! ! ! ! ! ! ! ! ! ! ! ! ! ! ! ! ! ! ! "
"! ! ' + , , , , , , , , , , , , , , , , , , , ' ! ! ! ! ! ! # $ % ! ! ! ! ! ! ! ! ! ! ! ! ! ! ! ! ! ! ! ! ! ! ! ! ! ! ! ! ! ! ! "
"! ! - , , , , , , , , , , , , , , , , , , , , ( ! ! ! ! ! ! # $ % ! ! ! ! ! ! ! ! ! ! ! ! ! ! ! ! ! ! ! ! ! ! ! ! ! ! ! ! ! ! ! "
"! ! + , , , , . / / / / / / / / / / / / , , , * ! ! ! ! ! ! # $ % ! ! 0 0 0 0 0 0 0 0 0 0 0 0 0 0 0 0 0 0 0 0 0 0 0 0 0 0 ! ! ! "
"! ! ) , , , , 1 2 2 2 2 2 2 2 2 2 2 2 2 , , , ( ! ! ! ! ! ! # $ % ! ! 3 3 3 3 3 3 3 3 3 3 3 3 3 3 3 3 3 3 3 3 3 3 3 3 3 3 ! ! ! "
"! ! 4 , , , , 5 6 6 6 6 6 6 6 6 6 6 6 6 , , + ! ! ! ! ! ! ! # $ % ! ! 7 7 7 7 7 7 7 7 7 7 7 7 7 7 7 7 7 7 7 7 7 7 7 7 7 7 ! ! ! "
"! ! ! 4 8 , , 9 : : : : : : : : : : : : ) ; ! ! ! ! ! ! ! ! # $ % ! ! < < < < < < < < < < < < < < < < < < < < < < < < < < ! ! ! "
"! ! ! ! ! ! ! = > > > > > > > > > > > > ! ! ! ! ! ! ! ! ! ! # $ % ! ! ? ? ? ? ? ? ? ? ? ? ? ? ? ? ? ? ? ? ? ? ? ? ? ? ? ? ! ! ! "
"! ! ! ! ! ! ! @ A A A A A A A A A A A A ! ! ! ! ! ! ! ! ! ! # $ % ! ! B B B B B B B B B B B B B B B B B B B B B B B B B B ! ! ! "
"! ! ! ! ! ! ! C D D D D D D D D D D D D ! ! ! ! ! ! ! ! ! ! # $ % ! ! E E E E E E E E E E E E E E E E E E E E E E E E E E ! ! ! "
"! ! ! ! ! ! ! F G G G G G G G G G G G G ! ! ! ! ! ! ! ! ! ! # $ % ! ! H H H H H H H H H H H H H H H H H H H H H H H H H H ! ! ! "
"! ! ! ! ! ! ! I J J J J J J J J J J J J ! ! ! ! ! ! ! ! ! ! # $ % ! ! K K K K K K K K K K K K K K K K K K K K K K K K K K ! ! ! "
"! ! ! ! ! ! ! L M M M M M M M M M M M M ! ! ! ! ! ! ! ! ! ! # $ % ! ! N N N N N N N N N N N N N N N N N N N N N N N N N N ! ! ! "
"! ! ! ! ! ! ! O P P P P P P P P P P P P ! ! ! ! ! ! ! ! ! ! # $ % ! ! Q Q Q Q Q Q Q Q Q Q Q Q Q Q Q Q Q Q Q Q Q Q Q Q Q Q ! ! ! "
"! ! ! ! ! ! ! R S S S S S S S S S S S S ! ! ! ! ! ! ! ! ! ! # $ % ! ! T T T T T T T T T T T T T T T T T T T T T T T T T T ! ! ! "
"! ! ! ! ! ! ! U V V V V V V V V V V V V ! ! ! ! ! ! ! & W ( X Y Z - ; [ \ \ \ \ \ \ \ \ \ \ \ \ \ \ \ \ \ \ \ \ \ \ \ \ \ ! ! ! "
"! ! ! ! ! ! ! ] ^ ^ ^ ^ ^ ^ ^ ^ ^ ^ ^ ^ ! ! ! W + , , , , , , , , , , , , , _ ` a a a a a a a a a a a a a a a a a a a a a ! ! ! "
"! ! ! ! ! ! ! b c c c c c c c c c c c c ' + , , , , , , , , , , , , , , , , , , , _ d e e e e e e e e e e e e e e e e e e ! ! ! "
"! ! ! ! ! ! ! f g g g g g g g g g g h , , , , , , , , , , , , , , , , , , , , , , , , , i j j j j j j j j j j j j j j j j ! ! ! "
"! ! ! ! ! ! ! k j j j j j j j j j l , , , , , , , , , , , , , , , , , , , , , , , , , , , m j j j j j j j j j j j j j j j ! ! ! "
"! ! ! ! ! ! ! k j j j j j j j j , , , , , , , , , n , , , , , , o , , , , , , o p , , , , , , q j j j j j j j j j j j j j ! ! ! "
"! ! ! ! ! ! ! r s s s s s s s , , , , , , , , , t u u u , , , n u u v , , , , u u u , , , , , , ! ! ! ! ! ! ! ! ! ! ! ! ! ! ! ! "
"! ! ! ! ! ! ! ! ! ! ! ! ! ! , , , , , , , , , , u u u u , , , w u u x , , , y u u z , , , , , , , ! ! ! ! ! ! ! ! ! ! ! ! ! ! ! "
"! ! ! ! ! ! ! ! ! ! ! ! ! ( , , , , , , , , , { u u u u , , , u u u , , , , u u u p , , , , , , , + ! ! ! ! ! ! ! ! ! ! ! ! ! ! "
"! ! ! ! ! ! ! ! ! ! ! ! ! , , , , , , , , , , u u w u u , , , u u u , , , , u u u , , , , , , , , , ! ! ! ! ! ! ! ! ! ! ! ! ! ! "
"! ! ! ! ! ! ! ! ! ! ! ! W , , , , , , , , , { u u o u u , , x u u z , , , n u u v , , , , , , , , , ) ! ! ! ! ! ! ! ! ! ! ! ! ! "
"| | | | | | | | | | | | } , , , , , , , , , u u u ~ u u , , u u u  !, , , !!u u t , , , , , , , , , , | | | | | | | | | | | | #!"
"$ $ $ $ $ $ $ $ $ $ $ $ , , , , , , , , $!u u u u u u u , , u u u , , , , u u u , , , , , , , , , , , $ $ $ $ $ $ $ $ $ $ $ $ %!"
"&!&!&!&!&!&!&!&!&!&!&!&!'!, , , , , , , u u u u u u u u ,  !u u u , , , , u u u , , , , , , , , , , , &!&!&!&!&!&!&!&!&!&!&!&!(!"
"! ! ! ! ! ! ! ! ! ! ! ! ) , , , , , , , u u u u w )!u u , $!u u !!y y x ~ u u v y y y , , , , , , , , ! ! ! ! ! ! ! ! ! ! ! ! ! "
"! ! ! ! ! ! ! ! ! ! ! ! ' , , , , , , , u u u , , u u u , { u u u u u u t u u u u u u , , , , , , , *!! ! ! ! ! ! ! ! ! ! ! ! ! "
"! ! ! ! ! ! ! ! ! ! ! ! ! , , , , , , , u u v , , u u u , , u u u u u { , u u u u u )!, , , , , , , ! ! ! ! ! ! ! ! ! ! ! ! ! ! "
"! ! ! ! ! ! ! ! ! ! ! ! ! ' , , , , , ,  !w , , , n w y , , p w w w w , , , w w w w , , , , , , , +!,!-!.!! ! ! ! ! ! ! ! ! ! ! "
"! ! ! /!/!/!/!/!/!/!/!/!/!/!0!, , , , , , , , , , , , , , , , , , , , , , , , , , , , , , , , , 1!2!2!2!2!3!.!! ! ! ! ! ! ! ! ! "
"! ! ! 0 0 0 0 0 0 0 0 0 0 0 0 1!, , , , , , , , , , , , , , , , , , , , , , , , , , , , , , , 4!6 6 6 6 6 6 6 5!! ! ! ! ! ! ! ! "
"! ! ! 3 3 3 3 3 3 3 3 3 3 3 3 3 6!, , , , , , , , , , , , , , , , , , , , , , , , , , , , , 7!7 7 7 7 7 7 7 7 7 8!! ! ! ! ! ! ! "
"! ! ! 9!9!9!9!9!9!9!9!9!9!9!9!9!9!:!, , , , , , , , , , , , , , , , , , , , , , , , , , , ;!<!=!>!?!?!?!?!?!?!?!?!@!! ! ! ! ! ! "
"! ! ! ?!?!?!?!?!?!?!?!?!?!?!?!?!?!?!?!A!, , , , , , , , , , , , , , , , , , , , , , , B!C!! ! ! ! ! ! D!E!E!E!E!E!E!F!! ! ! ! ! "
"! ! ! G!G!G!G!G!G!G!G!G!G!G!G!G!G!G!G!G!G!H!, , , , , , , , , , , , , , , , , , , I!J!! ! ! ! ! ! ! ! ! ! ? ? ? ? ? ? ! ! ! ! ! "
"! ! ! K!K!K!K!K!K!K!K!K!K!K!K!K!K!K!K!K!K!K!K!K!L!M!, , , , , , , , , , , N!O!P!P!P!! ! ! ! ! ! ! ! ! ! ! Q!P!P!P!P!P!R!! ! ! ! "
"! ! ! D D D D D D D D D D D D D D D D D D D D D D D D ! ! ! S!$ %!! ! ! T!U!U!U!U!V!! ! ! ! ! ! ! ! ! ! ! ! W!U!U!U!U!U!! ! ! ! "
"! ! ! X!X!X!X!X!X!X!X!X!X!X!X!X!X!X!X!X!X!X!X!X!X!X!X!! ! ! S!$ %!! ! ! X!X!X!X!X!! ! ! ! ! ! ! ! ! ! ! ! ! ! X!X!X!X!X!! ! ! ! "
"! ! ! Y!Y!Y!Y!Y!Y!Y!Y!Y!Y!Y!Y!Y!Y!Y!Y!Y!Y!Y!Y!Y!Y!Y!Y!! ! ! S!$ %!! ! ! H H H H Z!! ! ! ! ! ! ! ! ! ! ! ! ! ! [!H H H H \!! ! ! "
"! ! ! K K K K K K K K K K K K K K K K K K K K K K K K ! ! ! S!$ %!! ! ]!^!^!^!^!_!! ! ! ! ! ! ! ! ! ! ! ! ! ! `!^!^!^!^!a!! ! ! "
"! ! ! N N N N N N N N N N N N N N N N N N N N N N N N ! ! ! S!$ %!! ! b!M M M M c!! ! ! ! ! ! ! ! ! ! ! ! ! ! d!M M M M d!! ! ! "
"! ! ! e!e!e!e!e!e!e!e!e!e!e!e!e!e!e!e!e!e!e!e!e!e!e!e!! ! ! S!$ %!! ! f!g!g!g!g!h!! ! ! ! ! ! ! ! ! ! ! ! ! ! i!g!g!g!g!j!! ! ! "
"! ! ! k!k!k!k!k!k!k!k!k!k!k!k!k!k!k!k!k!k!k!k!k!k!k!k!! ! ! S!$ %!! ! ! Q Q Q Q l!! ! ! ! ! ! ! ! ! ! ! ! ! ! Q Q Q Q Q m!! ! ! "
"! ! ! V V V V V V V V V V V V V V V V V V V V V V V V ! ! ! S!$ %!! ! ! k!k!k!k!k!! ! ! ! ! ! ! ! ! ! ! ! ! n!k!k!k!k!k!! ! ! ! "
"! ! ! ^ ^ ^ ^ ^ ^ ^ ^ ^ ^ ^ ^ ^ ^ ^ ^ ^ ^ ^ ^ ^ ^ ^ ^ ! ! ! S!$ %!! ! ! o!p!p!p!p!q!! ! ! ! ! ! ! ! ! ! ! ! r!p!p!p!p!r!! ! ! ! "
"! ! ! s!s!s!s!s!s!s!s!s!s!s!s!s!s!s!s!s!s!s!s!s!s!s!s!! ! ! S!$ %!! ! ! t!\ \ \ \ \ u!! ! ! ! ! ! ! ! ! ! v!\ \ \ \ \ w!! ! ! ! "
"! ! ! x!x!x!x!x!x!x!x!x!x!x!x!x!x!x!x!x!x!x!x!x!x!x!x!! ! ! S!$ %!! ! ! ! y!a a a a a y!! ! ! ! ! ! ! ! z!a a a a a {!! ! ! ! ! "
"! ! ! j j j j j j j j j j j j j j j j j j j j j j j j ! ! ! S!$ %!! ! ! ! ! c c c c c c c |!}!! ~! #!#c c c c c c c ~!! ! ! ! ! "
"! ! ! j j j j j j j j j j j j j j j j j j j j j j j j ! ! ! S!$ %!! ! ! ! ! ##x!x!x!x!x!x!x!x!x!x!x!x!x!x!x!x!x!x!f ! ! ! ! ! ! "
"! ! ! j j j j j j j j j j j j j j j j j j j j j j j j ! ! ! S!$ %!! ! ! ! ! ! $#j j j j j j j j j j j j j j j j %#! ! ! ! ! ! ! "
"! ! ! ! ! ! ! ! ! ! ! ! ! ! ! ! ! ! ! ! ! ! ! ! ! ! ! ! ! ! S!$ %!! ! ! ! ! ! ! &#j j j j j j j j j j j j j j '#! ! ! ! ! ! ! ! "
"! ! ! ! ! ! ! ! ! ! ! ! ! ! ! ! ! ! ! ! ! ! ! ! ! ! ! ! ! ! S!$ %!! ! ! ! ! ! ! ! ! k j j j j j j j j j j (#! ! ! ! ! ! ! ! ! ! "
"! ! ! ! ! ! ! ! ! ! ! ! ! ! ! ! ! ! ! ! ! ! ! ! ! ! ! ! ! ! S!$ %!! ! ! ! ! ! ! ! ! ! ! ! )#*#j j +#,#-#! ! ! ! ! ! ! ! ! ! ! ! "
"! ! ! ! ! ! ! ! ! ! ! ! ! ! ! ! ! ! ! ! ! ! ! ! ! ! ! ! ! ! S!$ %!! ! ! ! ! ! ! ! ! ! ! ! ! ! ! ! ! ! ! ! ! ! ! ! ! ! ! ! ! ! ! "
"! ! ! ! ! ! ! ! ! ! ! ! ! ! ! ! ! ! ! ! ! ! ! ! ! ! ! ! ! ! S!$ %!! ! ! ! ! ! ! ! ! ! ! ! ! ! ! ! ! ! ! ! ! ! ! ! ! ! ! ! ! ! ! "
"! ! ! ! ! ! ! ! ! ! ! ! ! ! ! ! ! ! ! ! ! ! ! ! ! ! ! ! ! ! S!$ %!! ! ! ! ! ! ! ! ! ! ! ! ! ! ! ! ! ! ! ! ! ! ! ! ! ! ! ! ! ! ! "
"! ! ! ! ! ! ! ! ! ! ! ! ! ! ! ! ! ! ! ! ! ! ! ! ! ! ! ! ! ! S!$ %!! ! ! ! ! ! ! ! ! ! ! ! ! ! ! ! ! ! ! ! ! ! ! ! ! ! ! ! ! ! ! "};