/* XPM */ 
static char * front_xpm[] = {
"64 64 190 2",
"  	c None",
"! 	c white",
"# 	c #F2DADA",
"$ 	c #D89494",
"% 	c #C86666",
"& 	c #B53333",
"' 	c #E0A7A7",
"( 	c #AF2020",
") 	c #A40000",
"* 	c #F0D5D5",
"+ 	c #AE1717",
", 	c #A60000",
"- 	c #ECC7C7",
". 	c #A70000",
"/ 	c #EAC3C3",
"0 	c #FCF6F6",
"1 	c #AB0505",
"2 	c #A90000",
"3 	c #CC6766",
"4 	c #AA0100",
"5 	c #C95E5D",
"6 	c #EECCCC",
"7 	c #EBC3C3",
"8 	c #C34B4A",
"9 	c #B1110E",
": 	c #AC0300",
"; 	c #DB9190",
"< 	c #D27674",
"= 	c #FDFAFA",
"> 	c #AE0600",
"? 	c #B00B05",
"@ 	c #F3DBDA",
"A 	c #E7B7B5",
"B 	c #F8E9E8",
"C 	c #AF0700",
"D 	c #E8B7B5",
"E 	c #D88582",
"F 	c #F9EDEC",
"G 	c #B10900",
"H 	c #B81F17",
"I 	c #B30E05",
"J 	c #B20A00",
"K 	c #D77E79",
"L 	c #C34038",
"M 	c #B51205",
"N 	c #B40D00",
"O 	c #E5ABA7",
"P 	c #CF655D",
"Q 	c #C94C41",
"R 	c #B60F00",
"S 	c #E6ACA7",
"T 	c #D1675D",
"U 	c #F5DCDA",
"V 	c #B81100",
"W 	c #DD8E86",
"X 	c #C84538",
"Y 	c #BA1400",
"Z 	c #C33120",
"[ 	c #DC8479",
"\ 	c #BC1500",
"] 	c #FEFAFA",
"^ 	c #BD1700",
"_ 	c #F1CCC7",
"` 	c #DB8174",
"a 	c #E19286",
"b 	c #C01900",
"c 	c #C3260E",
"d 	c #C21C00",
"e 	c #FCF3F1",
"f 	c #E9ACA2",
"g 	c #F6DEDA",
"h 	c #C41E00",
"i 	c #C52205",
"j 	c #FAEBE8",
"k 	c #D0482E",
"l 	c #C62000",
"m 	c #EDBAB0",
"n 	c #DB715D",
"o 	c #D14D33",
"p 	c #C82300",
"q 	c #FEFBFA",
"r 	c #C92400",
"s 	c #CB2C09",
"t 	c #EBAC9E",
"u 	c #CB2600",
"v 	c #E69886",
"w 	c #4A2AEE",
"x 	c #3E1CED",
"y 	c #6E55F2",
"z 	c #AA9BF7",
"{ 	c #C2B8F9",
"| 	c #F3F1FE",
"} 	c #E7E3FD",
"~ 	c #5638EF",
" !	c #8771F4",
"!!	c #6247F0",
"#!	c #9F8EF6",
"$!	c #D55133",
"%!	c #DA6041",
"&!	c #CD2900",
"'!	c #FDF7F6",
"(!	c #DBD4FC",
")!	c #7B63F3",
"*!	c #B6AAF8",
"+!	c #EEB5A7",
",!	c #CF2B00",
"-!	c #D12D00",
".!	c #CFC6FA",
"/!	c #D32E01",
"0!	c #D43103",
"1!	c #9380F5",
"2!	c #D63306",
"3!	c #D83509",
"4!	c #DA360C",
"5!	c #DB390D",
"6!	c #E04D26",
"7!	c #DD3B10",
"8!	c #FEF8F7",
"9!	c #F3BBAD",
":!	c #EB8A71",
";!	c #DE3C13",
"<!	c #EFA28F",
"=!	c #E56342",
">!	c #EC8E76",
"?!	c #F8D5CB",
"@!	c #E03F14",
"A!	c #E1461C",
"B!	c #E24017",
"C!	c #E34219",
"D!	c #F6C4B8",
"E!	c #ED876D",
"F!	c #EF8F77",
"G!	c #E5441C",
"H!	c #E64820",
"I!	c #F0927B",
"J!	c #FFFBFB",
"K!	c #E6461D",
"L!	c #FEF5F3",
"M!	c #F6BCAD",
"N!	c #E74B24",
"O!	c #E74720",
"P!	c #E8512C",
"Q!	c #FBDED7",
"R!	c #E94922",
"S!	c #FAD7CE",
"T!	c #F39C87",
"U!	c #EB4A23",
"V!	c #FCE1DB",
"W!	c #EC4B24",
"X!	c #EE623F",
"Y!	c #F0613F",
"Z!	c #EE4E27",
"[!	c #F7AB99",
"\!	c #F27556",
"]!	c #EF4F29",
"^!	c #FACCC1",
"_!	c #F58F77",
"`!	c #FBD2C9",
"a!	c #F0502A",
"b!	c #FAC6BA",
"c!	c #F6937B",
"d!	c #F57D62",
"e!	c #F1512C",
"f!	c #F8A490",
"g!	c #F47A5E",
"h!	c #F36444",
"i!	c #F2512D",
"j!	c #F36140",
"k!	c #F25431",
"l!	c #F35936",
"m!	c #F3532F",
"n!	c #FCCDC3",
"o!	c #F9AB99",
"p!	c #F4603E",
"q!	c #F35633",
"r!	c #FDE9E5",
"s!	c #FCD0C6",
"t!	c #F56F51",
"u!	c #FAB7A8",
"v!	c #F8A18E",
"w!	c #FABAAC",
"x!	c #F8947E",
"y!	c #FDDDD5",
"z!	c #FCD9D1",
"{!	c #F7886F",
"|!	c #FEF6F4",
"}!	c #F9A795",
"~!	c #FCD3CA",
" #	c #F45C3A",
"!#	c #F6856B",
"! ! ! ! ! ! ! ! ! ! ! ! ! ! ! ! ! ! ! ! ! ! ! ! ! ! ! ! ! ! ! ! ! ! ! ! ! ! ! ! ! ! ! ! ! ! ! ! ! ! ! ! ! ! ! ! ! ! ! ! ! ! ! ! "
"! ! ! ! ! ! ! ! ! ! ! ! ! ! ! ! ! ! ! ! ! ! ! ! ! ! ! ! ! ! ! ! ! ! ! ! ! ! ! ! ! ! ! ! ! ! ! ! ! ! ! ! ! ! ! ! ! ! ! ! ! ! ! ! "
"! ! ! ! ! ! ! ! ! ! ! ! ! ! ! ! ! ! ! ! ! ! ! ! ! ! ! # $ % & & & & % $ # ! ! ! ! ! ! ! ! ! ! ! ! ! ! ! ! ! ! ! ! ! ! ! ! ! ! ! "
"! ! ! ! ! ! ! ! ! ! ! ! ! ! ! ! ! ! ! ! ! ! ! ' ( ) ) ) ) ) ) ) ) ) ) ) ) ) ) ( ' ! ! ! ! ! ! ! ! ! ! ! ! ! ! ! ! ! ! ! ! ! ! ! "
"! ! ! ! ! ! ! ! ! ! ! ! ! ! ! ! ! ! ! ! * + , , , , , , , , , , , , , , , , , , , , + * ! ! ! ! ! ! ! ! ! ! ! ! ! ! ! ! ! ! ! ! "
"! ! ! ! ! ! ! ! ! ! ! ! ! ! ! ! ! ! - . . . . . . . . . . . . . . . . . . . . . . . . . . / ! ! ! ! ! ! ! ! ! ! ! ! ! ! ! ! ! ! "
"! ! ! ! ! ! ! ! ! ! ! ! ! ! ! ! 0 1 2 2 2 2 2 2 2 2 2 2 2 2 2 2 2 2 2 2 2 2 2 2 2 2 2 2 2 2 1 0 ! ! ! ! ! ! ! ! ! ! ! ! ! ! ! ! "
"! ! ! ! ! ! ! ! ! ! ! ! ! ! ! 3 4 4 4 4 4 4 4 4 4 4 5 6 ! ! ! ! ! ! ! ! 7 8 4 4 4 4 4 4 4 4 4 4 3 ! ! ! ! ! ! ! ! ! ! ! ! ! ! ! "
"! ! ! ! ! ! ! ! ! ! ! ! ! ! 9 : : : : : : : : ; ! ! ! ! ! ! ! ! ! ! ! ! ! ! ! ! < : : : : : : : : 9 ! ! ! ! ! ! ! ! ! ! ! ! ! ! "
"! ! ! ! ! ! ! ! ! ! ! ! = > > > > > > > ? @ ! ! ! ! ! ! ! ! ! ! ! ! ! ! ! ! ! ! ! ! A > > > > > > > > = ! ! ! ! ! ! ! ! ! ! ! ! "
"! ! ! ! ! ! ! ! ! ! ! B C C C C C C C D ! ! ! ! ! ! ! ! ! ! ! ! ! ! ! ! ! ! ! ! ! ! ! ! E C C C C C C C B ! ! ! ! ! ! ! ! ! ! ! "
"! ! ! ! ! ! ! ! ! ! F G G G G G G H ! ! ! ! ! ! ! ! ! ! ! ! ! ! ! ! ! ! ! ! ! ! ! ! ! ! ! ! I G G G G G G F ! ! ! ! ! ! ! ! ! ! "
"! ! ! ! ! ! ! ! ! ! J J J J J J K ! ! ! ! ! ! ! ! ! ! ! ! ! ! ! ! ! ! ! ! ! ! ! ! ! ! ! ! ! ! L J J J J J J ! ! ! ! ! ! ! ! ! ! "
"! ! ! ! ! ! ! ! ! M N N N N N O ! ! ! ! ! ! ! ! ! ! ! ! ! ! ! ! ! ! ! ! ! ! ! ! ! ! ! ! ! ! ! ! P N N N N N M ! ! ! ! ! ! ! ! ! "
"! ! ! ! ! ! ! ! Q R R R R R S ! ! ! ! ! ! ! ! ! ! ! ! ! ! ! ! ! ! ! ! ! ! ! ! ! ! ! ! ! ! ! ! ! ! T R R R R R Q ! ! ! ! ! ! ! ! "
"! ! ! ! ! ! ! U V V V V V W ! ! ! ! ! ! ! ! ! ! ! ! ! ! ! ! ! ! ! ! ! ! ! ! ! ! ! ! ! ! ! ! ! ! ! ! X V V V V V U ! ! ! ! ! ! ! "
"! ! ! ! ! ! ! Y Y Y Y Y Z ! ! ! ! ! ! ! ! ! ! ! ! ! ! ! ! ! ! ! ! ! ! ! ! ! ! ! ! ! ! ! ! ! ! ! ! ! ! Y Y Y Y Y Y ! ! ! ! ! ! ! "
"! ! ! ! ! ! [ \ \ \ \ \ ! ! ! ! ! ! ! ! ! ! ! ! ! ! ! ! ! ! ! ! ! ! ! ! ! ! ! ! ! ! ! ! ! ! ! ! ! ! ! ] \ \ \ \ \ [ ! ! ! ! ! ! "
"! ! ! ! ! ! ^ ^ ^ ^ ^ _ ! ! ! ! ! ! ! ! ! ! ! ! ! ! ! ! ! ! ! ! ! ! ! ! ! ! ! ! ! ! ! ! ! ! ! ! ! ! ! ! ` ^ ^ ^ ^ ^ ! ! ! ! ! ! "
"! ! ! ! ! a b b b b c ! ! ! ! ! ! ! ! ! ! ! ! ! ! ! ! ! ! ! ! ! ! ! ! ! ! ! ! ! ! ! ! ! ! ! ! ! ! ! ! ! ! b b b b b a ! ! ! ! ! "
"! ! ! ! ! d d d d d e ! ! ! ! ! ! ! ! ! ! ! ! ! ! ! ! ! ! ! ! ! ! ! ! ! ! ! ! ! ! ! ! ! ! ! ! ! ! ! ! ! ! f d d d d d ! ! ! ! ! "
"! ! ! ! g h h h h i ! ! ! ! ! ! ! ! ! ! ! ! ! ! ! ! ! ! ! ! ! ! ! ! ! ! ! ! ! ! ! ! ! ! ! ! ! ! ! ! ! ! ! ! h h h h h j ! ! ! ! "
"! ! ! ! k l l l l m ! ! ! ! ! ! ! ! ! ! ! ! ! ! ! ! ! ! ! ! ! ! ! ! ! ! ! ! ! ! ! ! ! ! ! ! ! ! ! ! ! ! ! ! n l l l l o ! ! ! ! "
"! ! ! ! p p p p p ! ! ! ! ! ! ! ! ! ! ! ! ! ! ! ! ! ! ! ! ! ! ! ! ! ! ! ! ! ! ! ! ! ! ! ! ! ! ! ! ! ! ! ! ! q p p p p p ! ! ! ! "
"! ! ! ! r r r r s ! ! ! ! ! ! ! ! ! ! ! ! ! ! ! ! ! ! ! ! ! ! ! ! ! ! ! ! ! ! ! ! ! ! ! ! ! ! ! ! ! ! ! ! ! ! r r r r r ! ! ! ! "
"! ! ! t u u u u v ! ! w x x x x y z ! { y x x y | ! ! ! ! ! } w x ! ~ ! ! ! ! x  !! ! ! !!!!} ! x x x y y y #!$!u u u u t ! ! ! "
"! ! ! %!&!&!&!&!'!! (!x x x x x x !!x x x x x x x  !! ! !  !x x x x x )!! ! *!x x x ! ! x x x z x x x x x x x +!&!&!&!&!%!! ! ! "
"! ! ! ,!,!,!,!,!! ! y x x x x x x (!x x x x x x x x ! ! { x x x !!x x x ! ! w x x x *!| x x ~ y x x x x x x x q ,!,!,!,!,!! ! ! "
"! ! ! -!-!-!-!-!! ! ! !!x ~ ! ! ! } !!x w { ! x x x .!! x x x w ! x x x ! ! x x x x ~ #!x x z ! ! ! x w | ! ! ! -!-!-!-!-!! ! ! "
"! ! ! /!/!/!/!/!! ! ! x x x ! ! ! ! ! x x x ! ~ x x } z x x x ! ! x x x ! ! x x x x x w x x ! ! ! ! x x )!! ! ! /!/!/!/!/!! ! ! "
"! ! ! 0!0!0!0!0!! ! x x x x x x y ! *!x x z { x x x ! x x x .!! ! x x x ! 1!x x y x x x x x ! ! !  !x x } ! ! ! 0!0!0!0!0!! ! ! "
"! ! ! 2!2!2!2!2!! { x x x x x x z ! w x x x x x x { ! x x x ! ! z x x )!! x x x #!x x x x x ! ! ! x x x ! ! ! ! 2!2!2!2!2!! ! ! "
"! ! ! 3!3!3!3!3!! y x x x x x x ! ! x x x x x x (!! ! x x x ! ! x x x } ! x x x .!x x x x z ! ! ! x x x ! ! ! ! 3!3!3!3!3!! ! ! "
"! ! ! 4!4!4!4!4!! ! x x x ! ! ! ! | x x x x x y ! ! ! x x x ! (!x x x ! } x x ~ ! x x x x ! ! ! z x x 1!! ! ! ! 4!4!4!4!4!! ! ! "
"! ! ! 5!5!5!5!5!! { x x ~ ! ! ! ! 1!x x *!x x x | ! ! x x x x x x x { ! )!x x *!! x x x x ! ! ! x x x ! ! ! ! q 5!5!5!5!5!! ! ! "
"! ! ! 6!7!7!7!7!8!~ x x *!! ! ! ! x x x ! *!x x x ! ! 1!x x x x x ~ ! ! x x x ! ! x x x )!! ! ! x x x ! ! ! ! 9!7!7!7!7!6!! ! ! "
"! ! ! :!;!;!;!;!<!w x x ! ! ! ! ! x x x ! ! x x x .!! ! w x x x !!! ! ! x x x ! ! 1!x x z ! ! ! x x w ! ! ! ! =!;!;!;!;!>!! ! ! "
"! ! ! ?!@!@!@!@!A!! ! ! ! ! ! ! ! ! ! ! ! ! .!x x | ! ! ! ! .!! ! ! ! ! ! ! ! ! ! ! ! ! ! ! ! ! ! ! ! ! ! ! ! @!@!@!@!@!?!! ! ! "
"! ! ! ! B!B!B!B!B!! ! ! ! ! ! ! ! ! ! ! ! ! ! .!! ! ! ! ! ! ! ! ! ! ! ! ! ! ! ! ! ! ! ! ! ! ! ! ! ! ! ! ! ! q B!B!B!B!B!! ! ! ! "
"! ! ! ! C!C!C!C!C!D!! ! ! ! ! ! ! ! ! ! ! ! ! ! ! ! ! ! ! ! ! ! ! ! ! ! ! ! ! ! ! ! ! ! ! ! ! ! ! ! ! ! ! ! E!C!C!C!C!C!! ! ! ! "
"! ! ! ! F!G!G!G!G!H!! ! ! ! ! ! ! ! ! ! ! ! ! ! ! ! ! ! ! ! ! ! ! ! ! ! ! ! ! ! ! ! ! ! ! ! ! ! ! ! ! ! ! ! G!G!G!G!G!I!! ! ! ! "
"! ! ! ! J!K!K!K!K!K!L!! ! ! ! ! ! ! ! ! ! ! ! ! ! ! ! ! ! ! ! ! ! ! ! ! ! ! ! ! ! ! ! ! ! ! ! ! ! ! ! ! ! M!K!K!K!K!K!J!! ! ! ! "
"! ! ! ! ! N!O!O!O!O!P!! ! ! ! ! ! ! ! ! ! ! ! ! ! ! ! ! ! ! ! ! ! ! ! ! ! ! ! ! ! ! ! ! ! ! ! ! ! ! ! ! ! O!O!O!O!O!N!! ! ! ! ! "
"! ! ! ! ! Q!R!R!R!R!R!S!! ! ! ! ! ! ! ! ! ! ! ! ! ! ! ! ! ! ! ! ! ! ! ! ! ! ! ! ! ! ! ! ! ! ! ! ! ! ! ! T!R!R!R!R!R!Q!! ! ! ! ! "
"! ! ! ! ! ! U!U!U!U!U!U!! ! ! ! ! ! ! ! ! ! ! ! ! ! ! ! ! ! ! ! ! ! ! ! ! ! ! ! ! ! ! ! ! ! ! ! ! ! ! J!U!U!U!U!U!U!! ! ! ! ! ! "
"! ! ! ! ! ! V!W!W!W!W!W!X!! ! ! ! ! ! ! ! ! ! ! ! ! ! ! ! ! ! ! ! ! ! ! ! ! ! ! ! ! ! ! ! ! ! ! ! ! ! W!W!W!W!W!W!V!! ! ! ! ! ! "
"! ! ! ! ! ! ! Y!Z!Z!Z!Z!Z![!! ! ! ! ! ! ! ! ! ! ! ! ! ! ! ! ! ! ! ! ! ! ! ! ! ! ! ! ! ! ! ! ! ! ! ! \!Z!Z!Z!Z!Z!Y!! ! ! ! ! ! ! "
"! ! ! ! ! ! ! ! ]!]!]!]!]!]!^!! ! ! ! ! ! ! ! ! ! ! ! ! ! ! ! ! ! ! ! ! ! ! ! ! ! ! ! ! ! ! ! ! ! _!]!]!]!]!]!]!! ! ! ! ! ! ! ! "
"! ! ! ! ! ! ! ! `!a!a!a!a!a!a!b!! ! ! ! ! ! ! ! ! ! ! ! ! ! ! ! ! ! ! ! ! ! ! ! ! ! ! ! ! ! ! ! c!a!a!a!a!a!a!`!! ! ! ! ! ! ! ! "
"! ! ! ! ! ! ! ! ! d!e!e!e!e!e!e!f!! ! ! ! ! ! ! ! ! ! ! ! ! ! ! ! ! ! ! ! ! ! ! ! ! ! ! ! ! ! g!e!e!e!e!e!e!d!! ! ! ! ! ! ! ! ! "
"! ! ! ! ! ! ! ! ! ! h!i!i!i!i!i!i!j!! ! ! ! ! ! ! ! ! ! ! ! ! ! ! ! ! ! ! ! ! ! ! ! ! ! ! ! k!i!i!i!i!i!i!h!! ! ! ! ! ! ! ! ! ! "
"! ! ! ! ! ! ! ! ! ! ! l!m!m!m!m!m!m!m!n!! ! ! ! ! ! ! ! ! ! ! ! ! ! ! ! ! ! ! ! ! ! ! ! o!m!m!m!m!m!m!m!l!! ! ! ! ! ! ! ! ! ! ! "
"! ! ! ! ! ! ! ! ! ! ! ! p!m!m!m!m!m!m!m!q!r!! ! ! ! ! ! ! ! ! ! ! ! ! ! ! ! ! ! ! ! s!m!m!m!m!m!m!m!m!p!! ! ! ! ! ! ! ! ! ! ! ! "
"! ! ! ! ! ! ! ! ! ! ! ! ! t!m!m!m!m!m!m!m!m!m!u!! ! ! ! ! ! ! ! ! ! ! ! ! ! ! ! v!m!m!m!m!m!m!m!m!m!t!! ! ! ! ! ! ! ! ! ! ! ! ! "
"! ! ! ! ! ! ! ! ! ! ! ! ! ! w!m!m!m!m!m!m!m!m!m!m!m!x!y!! ! ! ! ! ! ! ! z!{!m!m!m!m!m!m!m!m!m!m!m!w!! ! ! ! ! ! ! ! ! ! ! ! ! ! "
"! ! ! ! ! ! ! ! ! ! ! ! ! ! ! |!m!m!m!m!m!m!m!m!m!m!m!m!m!m!m!m!m!m!m!m!m!m!m!m!m!m!m!m!m!m!m!m!|!! ! ! ! ! ! ! ! ! ! ! ! ! ! ! "
"! ! ! ! ! ! ! ! ! ! ! ! ! ! ! ! ! w!m!m!m!m!m!m!m!m!m!m!m!m!m!m!m!m!m!m!m!m!m!m!m!m!m!m!m!m!u!! ! ! ! ! ! ! ! ! ! ! ! ! ! ! ! ! "
"! ! ! ! ! ! ! ! ! ! ! ! ! ! ! ! ! ! ! }!m!m!m!m!m!m!m!m!m!m!m!m!m!m!m!m!m!m!m!m!m!m!m!m!}!! ! ! ! ! ! ! ! ! ! ! ! ! ! ! ! ! ! ! "
"! ! ! ! ! ! ! ! ! ! ! ! ! ! ! ! ! ! ! ! ! ~! #m!m!m!m!m!m!m!m!m!m!m!m!m!m!m!m!m!m! #~!! ! ! ! ! ! ! ! ! ! ! ! ! ! ! ! ! ! ! ! ! "
"! ! ! ! ! ! ! ! ! ! ! ! ! ! ! ! ! ! ! ! ! ! ! ! y!!#m!m!m!m!m!m!m!m!m!m!m!m!!#y!! ! ! ! ! ! ! ! ! ! ! ! ! ! ! ! ! ! ! ! ! ! ! ! "
"! ! ! ! ! ! ! ! ! ! ! ! ! ! ! ! ! ! ! ! ! ! ! ! ! ! ! ! ! ! ! y!y!! ! ! ! ! ! ! ! ! ! ! ! ! ! ! ! ! ! ! ! ! ! ! ! ! ! ! ! ! ! ! "
"! ! ! ! ! ! ! ! ! ! ! ! ! ! ! ! ! ! ! ! ! ! ! ! ! ! ! ! ! ! ! ! ! ! ! ! ! ! ! ! ! ! ! ! ! ! ! ! ! ! ! ! ! ! ! ! ! ! ! ! ! ! ! ! "
"! ! ! ! ! ! ! ! ! ! ! ! ! ! ! ! ! ! ! ! ! ! ! ! ! ! ! ! ! ! ! ! ! ! ! ! ! ! ! ! ! ! ! ! ! ! ! ! ! ! ! ! ! ! ! ! ! ! ! ! ! ! ! ! "
"! ! ! ! ! ! ! ! ! ! ! ! ! ! ! ! ! ! ! ! ! ! ! ! ! ! ! ! ! ! ! ! ! ! ! ! ! ! ! ! ! ! ! ! ! ! ! ! ! ! ! ! ! ! ! ! ! ! ! ! ! ! ! ! "};