/* XPM */ 
static char * side_xpm[] = {
"64 64 139 2",
"  	c None",
"! 	c white",
"# 	c #A40000",
"$ 	c #A70000",
"% 	c #A90000",
"& 	c #AC0300",
"' 	c #AF0700",
"( 	c #B10900",
") 	c #B40D00",
"* 	c #B71000",
"+ 	c #BA1400",
", 	c #BD1700",
"- 	c #B93720",
". 	c #B3644D",
"/ 	c #AF876F",
"0 	c #ACA088",
"1 	c #B08068",
"2 	c #B65039",
"3 	c #BB2B14",
"4 	c #C11B00",
"5 	c #9F2141",
"6 	c #986B8E",
"7 	c #B2A790",
"8 	c #9584A7",
"9 	c #9C8DA2",
": 	c #7862BE",
"; 	c #B9674E",
"< 	c #A01B3B",
"= 	c #C41D00",
"> 	c #9A1D4A",
"? 	c #3E1CED",
"@ 	c #B8AE99",
"A 	c #9280B3",
"B 	c #4D2EE2",
"C 	c #C72200",
"D 	c #7A1F85",
"E 	c #C0B6A3",
"F 	c #4E2FE4",
"G 	c #6F56D1",
"H 	c #9786BA",
"I 	c #A899B1",
"J 	c #C92400",
"K 	c #C92906",
"L 	c #694FD9",
"M 	c #7159D5",
"N 	c #C6BDAC",
"O 	c #BDB3B0",
"P 	c #583AE1",
"Q 	c #6044DD",
"R 	c #4F30E5",
"S 	c #CD2900",
"T 	c #CDC5B6",
"U 	c #BBB0BD",
"V 	c #5031E6",
"W 	c #A99BC4",
"X 	c #8E7BCE",
"Y 	c #8671D1",
"Z 	c #CDA995",
"[ 	c #CF2B00",
"\ 	c #D17A5E",
"] 	c #D4CDC0",
"^ 	c #6448E2",
"_ 	c #6D54DF",
"` 	c #4727EA",
"a 	c #B8ACC8",
"b 	c #8975D6",
"c 	c #CBC2C3",
"d 	c #D22E00",
"e 	c #DAC9BC",
"f 	c #DBD5CB",
"g 	c #C7BECF",
"h 	c #9684DA",
"i 	c #D1C9CD",
"j 	c #A08FD8",
"k 	c #D5623F",
"l 	c #D53204",
"m 	c #E0C3B5",
"n 	c #E2DCD3",
"o 	c #5334EA",
"p 	c #5D40E8",
"q 	c #8670E2",
"r 	c #7158E5",
"s 	c #B9ACDA",
"t 	c #D8542D",
"u 	c #D83509",
"v 	c #D25742",
"w 	c #9380E4",
"x 	c #9D8CE3",
"y 	c #E8E3DC",
"z 	c #A898E2",
"{ 	c #C8BEDF",
"| 	c #DDD7DD",
"} 	c #BDB1E0",
"~ 	c #694EE9",
" !	c #DB380D",
"!!	c #A190E9",
"#!	c #EFEAE5",
"$!	c #4929EC",
"%!	c #5436EC",
"&!	c #E27253",
"'!	c #DD3B10",
"(!	c #9986EC",
")!	c #F3F0EC",
"*!	c #AFA0EC",
"+!	c #BD7698",
",!	c #E03F14",
"-!	c #4A2AED",
".!	c #F8F5F2",
"/!	c #A696F0",
"0!	c #6D52EE",
"1!	c #E24117",
"2!	c #AF355A",
"3!	c #6725B7",
"4!	c #7C2A9C",
"5!	c #CD3C32",
"6!	c #F0A592",
"7!	c #FBF9F8",
"8!	c #A898F3",
"9!	c #B4A6F4",
":!	c #6D53F0",
";!	c #6932C7",
"<!	c #E5441C",
"=!	c #E75834",
">!	c #F3B7A8",
"?!	c #FAF3F0",
"@!	c #EF9680",
"A!	c #E7471F",
"B!	c #EB6B4A",
"C!	c #EF8E76",
"D!	c #EF927A",
"E!	c #F3B2A1",
"F!	c #EF8B72",
"G!	c #E8512B",
"H!	c #E94922",
"I!	c #EC4B24",
"J!	c #EE4E27",
"K!	c #F0502A",
"L!	c #F1512C",
"M!	c #F3532F",
"! ! ! ! ! ! ! ! ! ! ! ! ! ! ! ! ! ! ! ! ! ! ! ! ! ! ! ! ! ! ! ! ! ! ! ! ! ! ! ! ! ! ! ! ! ! ! ! ! ! ! ! ! ! ! ! ! ! ! ! ! ! ! ! "
"! ! ! ! ! ! ! ! ! ! ! ! ! ! ! ! ! ! ! ! ! ! ! ! ! ! ! ! ! ! ! ! ! ! ! ! ! ! ! ! ! ! ! ! ! ! ! ! ! ! ! ! ! ! ! ! ! ! ! ! ! ! ! ! "
"! ! ! ! ! ! ! ! ! ! ! ! ! ! ! ! ! ! ! ! ! ! ! ! ! ! ! ! ! ! ! ! ! ! ! ! ! ! ! ! ! ! ! ! ! ! ! ! ! ! ! ! ! ! ! ! ! ! ! ! ! ! ! ! "
"! ! ! ! ! ! ! ! ! ! ! ! ! ! ! ! ! ! ! ! ! ! ! ! ! ! ! ! ! ! ! ! ! ! ! ! ! ! ! ! ! ! ! ! ! ! ! ! ! ! ! ! ! ! ! ! ! ! ! ! ! ! ! ! "
"! ! ! ! ! ! ! ! ! ! ! ! ! ! ! ! ! ! ! ! ! ! ! ! ! ! ! ! ! ! ! ! ! ! ! ! ! ! ! ! ! ! ! ! ! ! ! ! ! ! ! ! ! ! ! ! ! ! ! ! ! ! ! ! "
"! ! ! ! ! ! ! ! ! ! ! ! ! ! ! ! ! ! ! ! ! ! ! ! ! ! ! ! ! ! ! ! ! ! ! ! ! ! ! ! ! ! ! ! ! ! ! ! ! ! ! ! ! ! ! ! ! ! ! ! ! ! ! ! "
"! ! ! ! ! ! ! ! ! ! ! ! ! ! ! ! ! ! ! ! ! ! ! ! ! ! ! ! ! ! ! ! ! ! ! ! ! ! ! ! ! ! ! ! ! ! ! ! ! ! ! ! ! ! ! ! ! ! ! ! ! ! ! ! "
"! ! ! ! ! ! ! ! ! ! ! ! ! ! ! ! ! ! ! ! ! ! ! ! ! ! ! ! ! ! ! ! ! ! ! ! ! ! ! ! ! ! ! ! ! ! ! ! ! ! ! ! ! ! ! ! ! ! ! ! ! ! ! ! "
"! ! ! ! ! ! ! ! ! ! ! ! ! ! ! ! ! ! ! ! ! ! ! ! ! ! ! ! ! ! ! ! ! ! ! ! ! ! ! ! ! ! ! ! ! ! ! ! ! ! ! ! ! ! ! ! ! ! ! ! ! ! ! ! "
"! ! ! ! ! ! ! ! ! ! ! ! ! ! ! ! ! ! ! ! ! ! ! ! ! ! ! ! ! ! ! ! ! ! ! ! ! ! ! ! ! ! ! ! ! ! ! ! ! ! ! ! ! ! ! ! ! ! ! ! ! ! ! ! "
"! ! ! ! ! ! ! ! ! ! ! ! ! ! ! ! ! ! ! ! ! ! ! ! ! ! ! ! ! ! ! ! ! ! ! ! ! ! ! ! ! ! ! ! ! ! ! ! ! ! ! ! ! ! ! ! ! ! ! ! ! ! ! ! "
"! ! ! ! ! ! ! ! ! ! ! ! ! ! ! ! ! ! ! ! ! ! ! ! ! ! ! ! ! ! ! ! ! ! ! ! ! ! ! ! ! ! ! ! ! ! ! ! ! ! ! ! ! ! ! ! ! ! ! ! ! ! ! ! "
"! ! ! ! ! ! ! ! ! ! ! ! ! ! ! ! ! ! ! ! ! ! ! ! ! ! ! ! ! ! ! ! ! ! ! ! ! ! ! ! ! ! ! ! ! ! ! ! ! ! ! ! ! ! ! ! ! ! ! ! ! ! ! ! "
"! ! ! ! ! ! ! ! ! ! ! ! ! ! ! ! ! ! ! ! ! ! ! ! ! ! ! ! ! ! ! ! ! ! ! ! ! ! ! ! ! ! ! ! ! ! ! ! ! ! ! ! ! ! ! ! ! ! ! ! ! ! ! ! "
"! ! ! ! ! # # # # # # # # # # # # # # # # # # # # # # # # # # # # # # # # # # # # # # # # # # # # # # # # # # # # # ! ! ! ! ! ! "
"! ! ! ! ! $ $ $ $ $ $ $ $ $ $ $ $ $ $ $ $ $ $ $ $ $ $ $ $ $ $ $ $ $ $ $ $ $ $ $ $ $ $ $ $ $ $ $ $ $ $ $ $ $ $ $ $ $ ! ! ! ! ! ! "
"! ! ! ! ! % % % % % % % % % % % % % % % % % % % % % % % % % % % % % % % % % % % % % % % % % % % % % % % % % % % % % ! ! ! ! ! ! "
"! ! ! ! ! & & & & & & & & & & & & & & & & & & & & & & & & & & & & & & & & & & & & & & & & & & & & & & & & & & & & & ! ! ! ! ! ! "
"! ! ! ! ! ' ' ' ' ' ' ' ' ' ' ' ' ' ' ' ' ' ' ' ' ' ' ' ' ' ' ' ' ' ' ' ' ' ' ' ' ' ' ' ' ' ' ' ' ' ' ' ' ' ' ' ' ' ! ! ! ! ! ! "
"! ! ! ! ! ( ( ( ( ( ( ( ( ( ( ( ( ( ( ( ( ( ( ( ( ( ( ( ( ( ( ( ( ( ( ( ( ( ( ( ( ( ( ( ( ( ( ( ( ( ( ( ( ( ( ( ( ( ! ! ! ! ! ! "
"! ! ! ! ! ) ) ) ) ) ) ) ) ) ) ) ) ) ) ) ) ) ) ) ) ) ) ) ) ) ) ) ) ) ) ) ) ) ) ) ) ) ) ) ) ) ) ) ) ) ) ) ) ) ) ) ) ) ! ! ! ! ! ! "
"! ! ! ! ! * * * * * * * * * * * * * * * * * * * * * * * * * * * * * * * * * * * * * * * * * * * * * * * * * * * * * ! ! ! ! ! ! "
"! ! ! ! ! + + + + + + + + + + + + + + + + + + + + + + + + + + + + + + + + + + + + + + + + + + + + + + + + + + + + + ! ! ! ! ! ! "
"! ! ! ! ! , , , , , , , , , , , , , , , , , , , , - . / 0 0 0 0 0 0 0 1 2 3 , , , , , , , , , , , , , , , , , , , , ! ! ! ! ! ! "
"! ! ! ! ! 4 4 4 4 4 4 4 4 4 4 4 4 4 4 4 4 5 6 7 7 7 8 9 7 7 7 8 : : 9 7 7 7 7 7 ; < < < < 4 4 4 4 4 4 4 4 4 4 4 4 4 ! ! ! ! ! ! "
"! ! ! ! ! = = = = = = = = = = = = = > ? ? ? ? ? @ A ? ? ? @ ? ? ? ? ? ? A @ @ @ B ? ? ? ? ? ? ? = = = = = = = = = = ! ! ! ! ! ! "
"! ! ! ! ! C C C C C C C C C C C C D ? ? ? ? ? ? E F ? ? G H ? ? ? ? ? ? ? I E E ? ? ? ? ? ? ? D C C C C C C C C C C ! ! ! ! ! ! "
"! ! ! ! ! J J J J J J J J J J J K ? ? ? L ? ? M N ? ? ? O P P ? M O ? ? ? ? N N Q ? R Q R ? ? J J J J J J J J J J J ! ! ! ! ! ! "
"! ! ! ! ! S S S S S S S S S S S T ? ? ? T T T T U ? ? ? T T V ? ? W T ? ? ? T T X ? ? Y T T Z S S S S S S S S S S S ! ! ! ! ! ! "
"! ! ! ! ! [ [ [ [ [ [ [ [ [ [ \ ] ? ? ? ^ ] ] ] _ ? ? ` ] ] ? ? ? ] ] ? ? ? ] a ? ? ? ^ b b c [ [ [ [ [ [ [ [ [ [ [ ! ! ! ! ! ! "
"! ! ! ! ! d d d d d d d d d d e f g ? ? ? f f f ? ? ? h f i ? ? ? f f ? ? ? f ? ? ? ? ? ? ? j k d d d d d d d d d d ! ! ! ! ! ! "
"! ! ! ! ! l l l l l l l l l l m n n o ? ? p n n ? ? ? n n q ? ? r n s ? ? ? n ? ? ? ? ? ? ? n t l l l l l l l l l l ! ! ! ! ! ! "
"! ! ! ! ! u u u u u u u u u u v w x y ? ? ? y z ? ? ? y y ? ? ? { | ? ? ? } y ~ ? ? } } } { y u u u u u u u u u u u ! ! ! ! ! ! "
"! ! ! ! !  ! ! ! ! ! ! ! ! ! !? ? ? !!? ? ? #!$!? ? %!#!#!? ? ? %!? ? ? $!#!#!? ? ? #!#!#!#!&! ! ! ! ! ! ! ! ! ! ! !! ! ! ! ! ! "
"! ! ! ! ! '!'!'!'!'!'!'!'!'!'!? ? ? ? ? ? (!)!? ? ? *!)!)!? ? ? ? ? ? ? )!)!)!? ? ? ? ? ? +!'!'!'!'!'!'!'!'!'!'!'!'!! ! ! ! ! ! "
"! ! ! ! ! ,!,!,!,!,!,!,!,!,!,!? ? ? ? ? -!.!.!? ? ? .!.!.!/!? ? ? ? 0!.!.!.!.!? ? ? ? ? ? ,!,!,!,!,!,!,!,!,!,!,!,!,!! ! ! ! ! ! "
"! ! ! ! ! 1!1!1!1!1!1!1!1!1!1!2!3!3!4!5!6!7!7!7!8!8!7!7!7!7!9!:!8!7!7!7!7!7!7!7!:!:!;!3!4!1!1!1!1!1!1!1!1!1!1!1!1!1!! ! ! ! ! ! "
"! ! ! ! ! <!<!<!<!<!<!<!<!<!<!<!<!<!<!<!<!<!=!>!7!7!7!7!7!7!7!7!7!7!7!7!7!7!?!@!<!<!<!<!<!<!<!<!<!<!<!<!<!<!<!<!<!<!! ! ! ! ! ! "
"! ! ! ! ! A!A!A!A!A!A!A!A!A!A!A!A!A!A!A!A!A!A!A!A!A!A!B!C!D!E!E!E!C!F!G!A!A!A!A!A!A!A!A!A!A!A!A!A!A!A!A!A!A!A!A!A!A!! ! ! ! ! ! "
"! ! ! ! ! H!H!H!H!H!H!H!H!H!H!H!H!H!H!H!H!H!H!H!H!H!H!H!H!H!H!H!H!H!H!H!H!H!H!H!H!H!H!H!H!H!H!H!H!H!H!H!H!H!H!H!H!H!! ! ! ! ! ! "
"! ! ! ! ! I!I!I!I!I!I!I!I!I!I!I!I!I!I!I!I!I!I!I!I!I!I!I!I!I!I!I!I!I!I!I!I!I!I!I!I!I!I!I!I!I!I!I!I!I!I!I!I!I!I!I!I!I!! ! ! ! ! ! "
"! ! ! ! ! J!J!J!J!J!J!J!J!J!J!J!J!J!J!J!J!J!J!J!J!J!J!J!J!J!J!J!J!J!J!J!J!J!J!J!J!J!J!J!J!J!J!J!J!J!J!J!J!J!J!J!J!J!! ! ! ! ! ! "
"! ! ! ! ! K!K!K!K!K!K!K!K!K!K!K!K!K!K!K!K!K!K!K!K!K!K!K!K!K!K!K!K!K!K!K!K!K!K!K!K!K!K!K!K!K!K!K!K!K!K!K!K!K!K!K!K!K!! ! ! ! ! ! "
"! ! ! ! ! L!L!L!L!L!L!L!L!L!L!L!L!L!L!L!L!L!L!L!L!L!L!L!L!L!L!L!L!L!L!L!L!L!L!L!L!L!L!L!L!L!L!L!L!L!L!L!L!L!L!L!L!L!! ! ! ! ! ! "
"! ! ! ! ! M!M!M!M!M!M!M!M!M!M!M!M!M!M!M!M!M!M!M!M!M!M!M!M!M!M!M!M!M!M!M!M!M!M!M!M!M!M!M!M!M!M!M!M!M!M!M!M!M!M!M!M!M!! ! ! ! ! ! "
"! ! ! ! ! M!M!M!M!M!M!M!M!M!M!M!M!M!M!M!M!M!M!M!M!M!M!M!M!M!M!M!M!M!M!M!M!M!M!M!M!M!M!M!M!M!M!M!M!M!M!M!M!M!M!M!M!M!! ! ! ! ! ! "
"! ! ! ! ! M!M!M!M!M!M!M!M!M!M!M!M!M!M!M!M!M!M!M!M!M!M!M!M!M!M!M!M!M!M!M!M!M!M!M!M!M!M!M!M!M!M!M!M!M!M!M!M!M!M!M!M!M!! ! ! ! ! ! "
"! ! ! ! ! M!M!M!M!M!M!M!M!M!M!M!M!M!M!M!M!M!M!M!M!M!M!M!M!M!M!M!M!M!M!M!M!M!M!M!M!M!M!M!M!M!M!M!M!M!M!M!M!M!M!M!M!M!! ! ! ! ! ! "
"! ! ! ! ! M!M!M!M!M!M!M!M!M!M!M!M!M!M!M!M!M!M!M!M!M!M!M!M!M!M!M!M!M!M!M!M!M!M!M!M!M!M!M!M!M!M!M!M!M!M!M!M!M!M!M!M!M!! ! ! ! ! ! "
"! ! ! ! ! M!M!M!M!M!M!M!M!M!M!M!M!M!M!M!M!M!M!M!M!M!M!M!M!M!M!M!M!M!M!M!M!M!M!M!M!M!M!M!M!M!M!M!M!M!M!M!M!M!M!M!M!M!! ! ! ! ! ! "
"! ! ! ! ! ! ! ! ! ! ! ! ! ! ! ! ! ! ! ! ! ! ! ! ! ! ! ! ! ! ! ! ! ! ! ! ! ! ! ! ! ! ! ! ! ! ! ! ! ! ! ! ! ! ! ! ! ! ! ! ! ! ! ! "
"! ! ! ! ! ! ! ! ! ! ! ! ! ! ! ! ! ! ! ! ! ! ! ! ! ! ! ! ! ! ! ! ! ! ! ! ! ! ! ! ! ! ! ! ! ! ! ! ! ! ! ! ! ! ! ! ! ! ! ! ! ! ! ! "
"! ! ! ! ! ! ! ! ! ! ! ! ! ! ! ! ! ! ! ! ! ! ! ! ! ! ! ! ! ! ! ! ! ! ! ! ! ! ! ! ! ! ! ! ! ! ! ! ! ! ! ! ! ! ! ! ! ! ! ! ! ! ! ! "
"! ! ! ! ! ! ! ! ! ! ! ! ! ! ! ! ! ! ! ! ! ! ! ! ! ! ! ! ! ! ! ! ! ! ! ! ! ! ! ! ! ! ! ! ! ! ! ! ! ! ! ! ! ! ! ! ! ! ! ! ! ! ! ! "
"! ! ! ! ! ! ! ! ! ! ! ! ! ! ! ! ! ! ! ! ! ! ! ! ! ! ! ! ! ! ! ! ! ! ! ! ! ! ! ! ! ! ! ! ! ! ! ! ! ! ! ! ! ! ! ! ! ! ! ! ! ! ! ! "
"! ! ! ! ! ! ! ! ! ! ! ! ! ! ! ! ! ! ! ! ! ! ! ! ! ! ! ! ! ! ! ! ! ! ! ! ! ! ! ! ! ! ! ! ! ! ! ! ! ! ! ! ! ! ! ! ! ! ! ! ! ! ! ! "
"! ! ! ! ! ! ! ! ! ! ! ! ! ! ! ! ! ! ! ! ! ! ! ! ! ! ! ! ! ! ! ! ! ! ! ! ! ! ! ! ! ! ! ! ! ! ! ! ! ! ! ! ! ! ! ! ! ! ! ! ! ! ! ! "
"! ! ! ! ! ! ! ! ! ! ! ! ! ! ! ! ! ! ! ! ! ! ! ! ! ! ! ! ! ! ! ! ! ! ! ! ! ! ! ! ! ! ! ! ! ! ! ! ! ! ! ! ! ! ! ! ! ! ! ! ! ! ! ! "
"! ! ! ! ! ! ! ! ! ! ! ! ! ! ! ! ! ! ! ! ! ! ! ! ! ! ! ! ! ! ! ! ! ! ! ! ! ! ! ! ! ! ! ! ! ! ! ! ! ! ! ! ! ! ! ! ! ! ! ! ! ! ! ! "
"! ! ! ! ! ! ! ! ! ! ! ! ! ! ! ! ! ! ! ! ! ! ! ! ! ! ! ! ! ! ! ! ! ! ! ! ! ! ! ! ! ! ! ! ! ! ! ! ! ! ! ! ! ! ! ! ! ! ! ! ! ! ! ! "
"! ! ! ! ! ! ! ! ! ! ! ! ! ! ! ! ! ! ! ! ! ! ! ! ! ! ! ! ! ! ! ! ! ! ! ! ! ! ! ! ! ! ! ! ! ! ! ! ! ! ! ! ! ! ! ! ! ! ! ! ! ! ! ! "
"! ! ! ! ! ! ! ! ! ! ! ! ! ! ! ! ! ! ! ! ! ! ! ! ! ! ! ! ! ! ! ! ! ! ! ! ! ! ! ! ! ! ! ! ! ! ! ! ! ! ! ! ! ! ! ! ! ! ! ! ! ! ! ! "
"! ! ! ! ! ! ! ! ! ! ! ! ! ! ! ! ! ! ! ! ! ! ! ! ! ! ! ! ! ! ! ! ! ! ! ! ! ! ! ! ! ! ! ! ! ! ! ! ! ! ! ! ! ! ! ! ! ! ! ! ! ! ! ! "
"! ! ! ! ! ! ! ! ! ! ! ! ! ! ! ! ! ! ! ! ! ! ! ! ! ! ! ! ! ! ! ! ! ! ! ! ! ! ! ! ! ! ! ! ! ! ! ! ! ! ! ! ! ! ! ! ! ! ! ! ! ! ! ! "};