/* XPM */ 
static char * top_xpm[] = {
"64 64 137 2",
"  	c None",
"! 	c white",
"# 	c #A40000",
"$ 	c #A70000",
"% 	c #A90000",
"& 	c #AC0300",
"' 	c #AF0700",
"( 	c #B10900",
") 	c #B40D00",
"* 	c #B71000",
"+ 	c #BA1400",
", 	c #BD1700",
"- 	c #B93720",
". 	c #B3644D",
"/ 	c #AF876F",
"0 	c #ACA088",
"1 	c #B08068",
"2 	c #B65039",
"3 	c #BB2B14",
"4 	c #C11B00",
"5 	c #C02308",
"6 	c #B6866E",
"7 	c #B2A790",
"8 	c #B9674E",
"9 	c #C41D00",
": 	c #461FE1",
"; 	c #3E1CED",
"< 	c #5D41D8",
"= 	c #7B65C3",
"> 	c #B8AE99",
"? 	c #B0A59E",
"@ 	c #745CC8",
"A 	c #4D2EE2",
"B 	c #AA929A",
"C 	c #C42003",
"D 	c #C72200",
"E 	c #C0B19D",
"F 	c #6F56D1",
"G 	c #C0B6A3",
"H 	c #4626E8",
"I 	c #7F69C8",
"J 	c #8F7CBF",
"K 	c #C28B74",
"L 	c #C92400",
"M 	c #C92906",
"N 	c #C6BDAC",
"O 	c #BDB3B0",
"P 	c #6044DD",
"Q 	c #694FD9",
"R 	c #583AE1",
"S 	c #C6B8A6",
"T 	c #CD2900",
"U 	c #CDC5B6",
"V 	c #593CE3",
"W 	c #6246DF",
"X 	c #745CD8",
"Y 	c #C4BAB9",
"Z 	c #BBB0BD",
"[ 	c #CDA995",
"\ 	c #CF2B00",
"] 	c #D17A5E",
"^ 	c #D4CDC0",
"_ 	c #5A3DE5",
"` 	c #5132E7",
"a 	c #D22E00",
"b 	c #DAC9BC",
"c 	c #DBD5CB",
"d 	c #5C3FE7",
"e 	c #B4A7D4",
"f 	c #654AE4",
"g 	c #D1C9CD",
"h 	c #6F56E2",
"i 	c #D5623F",
"j 	c #D53204",
"k 	c #E0C3B5",
"l 	c #E2DCD3",
"m 	c #8670E2",
"n 	c #AFA0DB",
"o 	c #5D40E8",
"p 	c #A494DD",
"q 	c #B9ACDA",
"r 	c #D8542D",
"s 	c #D83509",
"t 	c #DC5B37",
"u 	c #E8E3DC",
"v 	c #8973E6",
"w 	c #DB380D",
"x 	c #EDDAD2",
"y 	c #EFEAE5",
"z 	c #816AEA",
"{ 	c #4929EC",
"| 	c #5436EC",
"} 	c #E4DDE6",
"~ 	c #E27253",
" !	c #DD3B10",
"!!	c #F1E3DC",
"#!	c #F3F0EC",
"$!	c #BAADEC",
"%!	c #775FED",
"&!	c #E8E3EC",
"'!	c #D1C8EC",
"(!	c #826CED",
")!	c #E8947C",
"*!	c #E03F14",
"+!	c #EA8B71",
",!	c #5537EE",
"-!	c #D5CCF1",
".!	c #F8F5F2",
"/!	c #7860EF",
"0!	c #9B89F0",
"1!	c #E1DAF1",
"2!	c #E24D25",
"3!	c #E24117",
"4!	c #481EE0",
"5!	c #FBF9F8",
"6!	c #4A2AEE",
"7!	c #A898F3",
"8!	c #6246EF",
"9!	c #E97455",
":!	c #E5441C",
";!	c #E75834",
"<!	c #F3B7A8",
"=!	c #FAF3F0",
">!	c #EF9680",
"?!	c #E7471F",
"@!	c #EB6B4A",
"A!	c #EF8E76",
"B!	c #EF927A",
"C!	c #F3B2A1",
"D!	c #EF8B72",
"E!	c #E8512B",
"F!	c #E94922",
"G!	c #EC4B24",
"H!	c #EE4E27",
"I!	c #F0502A",
"J!	c #F1512C",
"K!	c #F3532F",
"! ! ! ! ! ! ! ! ! ! ! ! ! ! ! ! ! ! ! ! ! ! ! ! ! ! ! ! ! ! ! ! ! ! ! ! ! ! ! ! ! ! ! ! ! ! ! ! ! ! ! ! ! ! ! ! ! ! ! ! ! ! ! ! "
"! ! ! ! ! ! ! ! ! ! ! ! ! ! ! ! ! ! ! ! ! ! ! ! ! ! ! ! ! ! ! ! ! ! ! ! ! ! ! ! ! ! ! ! ! ! ! ! ! ! ! ! ! ! ! ! ! ! ! ! ! ! ! ! "
"! ! ! ! ! ! ! ! ! ! ! ! ! ! ! ! ! ! ! ! ! ! ! ! ! ! ! ! ! ! ! ! ! ! ! ! ! ! ! ! ! ! ! ! ! ! ! ! ! ! ! ! ! ! ! ! ! ! ! ! ! ! ! ! "
"! ! ! ! ! ! ! ! ! ! ! ! ! ! ! ! ! ! ! ! ! ! ! ! ! ! ! ! ! ! ! ! ! ! ! ! ! ! ! ! ! ! ! ! ! ! ! ! ! ! ! ! ! ! ! ! ! ! ! ! ! ! ! ! "
"! ! ! ! ! ! ! ! ! ! ! ! ! ! ! ! ! ! ! ! ! ! ! ! ! ! ! ! ! ! ! ! ! ! ! ! ! ! ! ! ! ! ! ! ! ! ! ! ! ! ! ! ! ! ! ! ! ! ! ! ! ! ! ! "
"! ! ! ! ! ! ! ! ! ! ! ! ! ! ! ! ! ! ! ! ! ! ! ! ! ! ! ! ! ! ! ! ! ! ! ! ! ! ! ! ! ! ! ! ! ! ! ! ! ! ! ! ! ! ! ! ! ! ! ! ! ! ! ! "
"! ! ! ! ! ! ! ! ! ! ! ! ! ! ! ! ! ! ! ! ! ! ! ! ! ! ! ! ! ! ! ! ! ! ! ! ! ! ! ! ! ! ! ! ! ! ! ! ! ! ! ! ! ! ! ! ! ! ! ! ! ! ! ! "
"! ! ! ! ! ! ! ! ! ! ! ! ! ! ! ! ! ! ! ! ! ! ! ! ! ! ! ! ! ! ! ! ! ! ! ! ! ! ! ! ! ! ! ! ! ! ! ! ! ! ! ! ! ! ! ! ! ! ! ! ! ! ! ! "
"! ! ! ! ! ! ! ! ! ! ! ! ! ! ! ! ! ! ! ! ! ! ! ! ! ! ! ! ! ! ! ! ! ! ! ! ! ! ! ! ! ! ! ! ! ! ! ! ! ! ! ! ! ! ! ! ! ! ! ! ! ! ! ! "
"! ! ! ! ! ! ! ! ! ! ! ! ! ! ! ! ! ! ! ! ! ! ! ! ! ! ! ! ! ! ! ! ! ! ! ! ! ! ! ! ! ! ! ! ! ! ! ! ! ! ! ! ! ! ! ! ! ! ! ! ! ! ! ! "
"! ! ! ! ! ! ! ! ! ! ! ! ! ! ! ! ! ! ! ! ! ! ! ! ! ! ! ! ! ! ! ! ! ! ! ! ! ! ! ! ! ! ! ! ! ! ! ! ! ! ! ! ! ! ! ! ! ! ! ! ! ! ! ! "
"! ! ! ! ! ! ! ! ! ! ! ! ! ! ! ! ! ! ! ! ! ! ! ! ! ! ! ! ! ! ! ! ! ! ! ! ! ! ! ! ! ! ! ! ! ! ! ! ! ! ! ! ! ! ! ! ! ! ! ! ! ! ! ! "
"! ! ! ! ! ! ! ! ! ! ! ! ! ! ! ! ! ! ! ! ! ! ! ! ! ! ! ! ! ! ! ! ! ! ! ! ! ! ! ! ! ! ! ! ! ! ! ! ! ! ! ! ! ! ! ! ! ! ! ! ! ! ! ! "
"! ! ! ! ! ! ! ! ! ! ! ! ! ! ! ! ! ! ! ! ! ! ! ! ! ! ! ! ! ! ! ! ! ! ! ! ! ! ! ! ! ! ! ! ! ! ! ! ! ! ! ! ! ! ! ! ! ! ! ! ! ! ! ! "
"! ! ! ! ! # # # # # # # # # # # # # # # # # # # # # # # # # # # # # # # # # # # # # # # # # # # # # # # # # # # # # ! ! ! ! ! ! "
"! ! ! ! ! $ $ $ $ $ $ $ $ $ $ $ $ $ $ $ $ $ $ $ $ $ $ $ $ $ $ $ $ $ $ $ $ $ $ $ $ $ $ $ $ $ $ $ $ $ $ $ $ $ $ $ $ $ ! ! ! ! ! ! "
"! ! ! ! ! % % % % % % % % % % % % % % % % % % % % % % % % % % % % % % % % % % % % % % % % % % % % % % % % % % % % % ! ! ! ! ! ! "
"! ! ! ! ! & & & & & & & & & & & & & & & & & & & & & & & & & & & & & & & & & & & & & & & & & & & & & & & & & & & & & ! ! ! ! ! ! "
"! ! ! ! ! ' ' ' ' ' ' ' ' ' ' ' ' ' ' ' ' ' ' ' ' ' ' ' ' ' ' ' ' ' ' ' ' ' ' ' ' ' ' ' ' ' ' ' ' ' ' ' ' ' ' ' ' ' ! ! ! ! ! ! "
"! ! ! ! ! ( ( ( ( ( ( ( ( ( ( ( ( ( ( ( ( ( ( ( ( ( ( ( ( ( ( ( ( ( ( ( ( ( ( ( ( ( ( ( ( ( ( ( ( ( ( ( ( ( ( ( ( ( ! ! ! ! ! ! "
"! ! ! ! ! ) ) ) ) ) ) ) ) ) ) ) ) ) ) ) ) ) ) ) ) ) ) ) ) ) ) ) ) ) ) ) ) ) ) ) ) ) ) ) ) ) ) ) ) ) ) ) ) ) ) ) ) ) ! ! ! ! ! ! "
"! ! ! ! ! * * * * * * * * * * * * * * * * * * * * * * * * * * * * * * * * * * * * * * * * * * * * * * * * * * * * * ! ! ! ! ! ! "
"! ! ! ! ! + + + + + + + + + + + + + + + + + + + + + + + + + + + + + + + + + + + + + + + + + + + + + + + + + + + + + ! ! ! ! ! ! "
"! ! ! ! ! , , , , , , , , , , , , , , , , , , , , - . / 0 0 0 0 0 0 0 1 2 3 , , , , , , , , , , , , , , , , , , , , ! ! ! ! ! ! "
"! ! ! ! ! 4 4 4 4 4 4 4 4 4 4 4 4 4 4 4 4 5 6 7 7 7 7 7 7 7 7 7 7 7 7 7 7 7 7 7 8 4 4 4 4 4 4 4 4 4 4 4 4 4 4 4 4 4 ! ! ! ! ! ! "
"! ! ! ! ! 9 9 9 9 9 9 9 9 9 9 9 9 9 9 : ; ; ; ; ; < = > > = ; ; ? ; > > > @ ; ; ; A B C 9 9 9 9 9 9 9 9 9 9 9 9 9 9 ! ! ! ! ! ! "
"! ! ! ! ! D D D D D D D D D D D D D E ; ; ; ; ; ; ; F G H ; ; ; ; ; I G ; ; ; ; ; ; ; J K D D D D D D D D D D D D D ! ! ! ! ! ! "
"! ! ! ! ! L L L L L L L L L L L M N N ; ; ; ; ; ; ; O P ; ; ; Q ; ; R N ; ; ; ; ; ; ; ; N S L L L L L L L L L L L L ! ! ! ! ! ! "
"! ! ! ! ! T T T T T T T T T T T U U U U U V ; W U U U ; ; ; X U ; ; ; Y ; ; V Z U ; ; ; U U [ T T T T T T T T T T T ! ! ! ! ! ! "
"! ! ! ! ! \ \ \ \ \ \ \ \ \ \ ] ^ ^ ^ ^ ^ ; ; ; ^ ^ _ ; ; ` ^ ^ ; ; ; ^ ^ ; ; ; ^ ; ; ; ^ ^ ^ \ \ \ \ \ \ \ \ \ \ \ ! ! ! ! ! ! "
"! ! ! ! ! a a a a a a a a a a b c c c c c ; ; d c c ; ; ; c c e ; ; f c g ; ; d h ; ; ; c c c i a a a a a a a a a a ! ! ! ! ! ! "
"! ! ! ! ! j j j j j j j j j j k l l l l m ; ; n l l ; ; ; l l o ; ; p l m ; ; ; ; ; ; q l l l r j j j j j j j j j j ! ! ! ! ! ! "
"! ! ! ! ! s s s s s s s s s s t u u u u ; ; ; u u u ; ; ; u u ; ; ; u u ; ; ; ; ; ; v u u u u s s s s s s s s s s s ! ! ! ! ! ! "
"! ! ! ! ! w w w w w w w w w w w x y y y ; ; ; y y y ; ; ; y z ; ; { y y ; ; ; | | } y y y y ~ w w w w w w w w w w w ! ! ! ! ! ! "
"! ! ! ! !  ! ! ! ! ! ! ! ! ! ! ! !!!#!$!; ; %!#!#!#!; ; ; ; ; ; ; &!#!'!; ; (!#!#!#!#!#!#!)! ! ! ! ! ! ! ! ! ! ! ! !! ! ! ! ! ! "
"! ! ! ! ! *!*!*!*!*!*!*!*!*!*!*!*!*!+!,!; ; -!.!.!.!/!; ; ; ; ; 0!.!.!/!; ; 1!.!.!.!.!.!2!*!*!*!*!*!*!*!*!*!*!*!*!*!! ! ! ! ! ! "
"! ! ! ! ! 3!3!3!3!3!3!3!3!3!3!3!3!3!3!4!; ; 5!5!5!5!5!6!; ; ; 7!5!5!5!8!; ; 5!5!5!5!9!3!3!3!3!3!3!3!3!3!3!3!3!3!3!3!! ! ! ! ! ! "
"! ! ! ! ! :!:!:!:!:!:!:!:!:!:!:!:!:!:!:!:!:!;!<!5!5!5!5!5!5!5!5!5!5!5!5!5!5!=!>!:!:!:!:!:!:!:!:!:!:!:!:!:!:!:!:!:!:!! ! ! ! ! ! "
"! ! ! ! ! ?!?!?!?!?!?!?!?!?!?!?!?!?!?!?!?!?!?!?!?!?!?!@!A!B!C!C!C!A!D!E!?!?!?!?!?!?!?!?!?!?!?!?!?!?!?!?!?!?!?!?!?!?!! ! ! ! ! ! "
"! ! ! ! ! F!F!F!F!F!F!F!F!F!F!F!F!F!F!F!F!F!F!F!F!F!F!F!F!F!F!F!F!F!F!F!F!F!F!F!F!F!F!F!F!F!F!F!F!F!F!F!F!F!F!F!F!F!! ! ! ! ! ! "
"! ! ! ! ! G!G!G!G!G!G!G!G!G!G!G!G!G!G!G!G!G!G!G!G!G!G!G!G!G!G!G!G!G!G!G!G!G!G!G!G!G!G!G!G!G!G!G!G!G!G!G!G!G!G!G!G!G!! ! ! ! ! ! "
"! ! ! ! ! H!H!H!H!H!H!H!H!H!H!H!H!H!H!H!H!H!H!H!H!H!H!H!H!H!H!H!H!H!H!H!H!H!H!H!H!H!H!H!H!H!H!H!H!H!H!H!H!H!H!H!H!H!! ! ! ! ! ! "
"! ! ! ! ! I!I!I!I!I!I!I!I!I!I!I!I!I!I!I!I!I!I!I!I!I!I!I!I!I!I!I!I!I!I!I!I!I!I!I!I!I!I!I!I!I!I!I!I!I!I!I!I!I!I!I!I!I!! ! ! ! ! ! "
"! ! ! ! ! J!J!J!J!J!J!J!J!J!J!J!J!J!J!J!J!J!J!J!J!J!J!J!J!J!J!J!J!J!J!J!J!J!J!J!J!J!J!J!J!J!J!J!J!J!J!J!J!J!J!J!J!J!! ! ! ! ! ! "
"! ! ! ! ! K!K!K!K!K!K!K!K!K!K!K!K!K!K!K!K!K!K!K!K!K!K!K!K!K!K!K!K!K!K!K!K!K!K!K!K!K!K!K!K!K!K!K!K!K!K!K!K!K!K!K!K!K!! ! ! ! ! ! "
"! ! ! ! ! K!K!K!K!K!K!K!K!K!K!K!K!K!K!K!K!K!K!K!K!K!K!K!K!K!K!K!K!K!K!K!K!K!K!K!K!K!K!K!K!K!K!K!K!K!K!K!K!K!K!K!K!K!! ! ! ! ! ! "
"! ! ! ! ! K!K!K!K!K!K!K!K!K!K!K!K!K!K!K!K!K!K!K!K!K!K!K!K!K!K!K!K!K!K!K!K!K!K!K!K!K!K!K!K!K!K!K!K!K!K!K!K!K!K!K!K!K!! ! ! ! ! ! "
"! ! ! ! ! K!K!K!K!K!K!K!K!K!K!K!K!K!K!K!K!K!K!K!K!K!K!K!K!K!K!K!K!K!K!K!K!K!K!K!K!K!K!K!K!K!K!K!K!K!K!K!K!K!K!K!K!K!! ! ! ! ! ! "
"! ! ! ! ! K!K!K!K!K!K!K!K!K!K!K!K!K!K!K!K!K!K!K!K!K!K!K!K!K!K!K!K!K!K!K!K!K!K!K!K!K!K!K!K!K!K!K!K!K!K!K!K!K!K!K!K!K!! ! ! ! ! ! "
"! ! ! ! ! K!K!K!K!K!K!K!K!K!K!K!K!K!K!K!K!K!K!K!K!K!K!K!K!K!K!K!K!K!K!K!K!K!K!K!K!K!K!K!K!K!K!K!K!K!K!K!K!K!K!K!K!K!! ! ! ! ! ! "
"! ! ! ! ! ! ! ! ! ! ! ! ! ! ! ! ! ! ! ! ! ! ! ! ! ! ! ! ! ! ! ! ! ! ! ! ! ! ! ! ! ! ! ! ! ! ! ! ! ! ! ! ! ! ! ! ! ! ! ! ! ! ! ! "
"! ! ! ! ! ! ! ! ! ! ! ! ! ! ! ! ! ! ! ! ! ! ! ! ! ! ! ! ! ! ! ! ! ! ! ! ! ! ! ! ! ! ! ! ! ! ! ! ! ! ! ! ! ! ! ! ! ! ! ! ! ! ! ! "
"! ! ! ! ! ! ! ! ! ! ! ! ! ! ! ! ! ! ! ! ! ! ! ! ! ! ! ! ! ! ! ! ! ! ! ! ! ! ! ! ! ! ! ! ! ! ! ! ! ! ! ! ! ! ! ! ! ! ! ! ! ! ! ! "
"! ! ! ! ! ! ! ! ! ! ! ! ! ! ! ! ! ! ! ! ! ! ! ! ! ! ! ! ! ! ! ! ! ! ! ! ! ! ! ! ! ! ! ! ! ! ! ! ! ! ! ! ! ! ! ! ! ! ! ! ! ! ! ! "
"! ! ! ! ! ! ! ! ! ! ! ! ! ! ! ! ! ! ! ! ! ! ! ! ! ! ! ! ! ! ! ! ! ! ! ! ! ! ! ! ! ! ! ! ! ! ! ! ! ! ! ! ! ! ! ! ! ! ! ! ! ! ! ! "
"! ! ! ! ! ! ! ! ! ! ! ! ! ! ! ! ! ! ! ! ! ! ! ! ! ! ! ! ! ! ! ! ! ! ! ! ! ! ! ! ! ! ! ! ! ! ! ! ! ! ! ! ! ! ! ! ! ! ! ! ! ! ! ! "
"! ! ! ! ! ! ! ! ! ! ! ! ! ! ! ! ! ! ! ! ! ! ! ! ! ! ! ! ! ! ! ! ! ! ! ! ! ! ! ! ! ! ! ! ! ! ! ! ! ! ! ! ! ! ! ! ! ! ! ! ! ! ! ! "
"! ! ! ! ! ! ! ! ! ! ! ! ! ! ! ! ! ! ! ! ! ! ! ! ! ! ! ! ! ! ! ! ! ! ! ! ! ! ! ! ! ! ! ! ! ! ! ! ! ! ! ! ! ! ! ! ! ! ! ! ! ! ! ! "
"! ! ! ! ! ! ! ! ! ! ! ! ! ! ! ! ! ! ! ! ! ! ! ! ! ! ! ! ! ! ! ! ! ! ! ! ! ! ! ! ! ! ! ! ! ! ! ! ! ! ! ! ! ! ! ! ! ! ! ! ! ! ! ! "
"! ! ! ! ! ! ! ! ! ! ! ! ! ! ! ! ! ! ! ! ! ! ! ! ! ! ! ! ! ! ! ! ! ! ! ! ! ! ! ! ! ! ! ! ! ! ! ! ! ! ! ! ! ! ! ! ! ! ! ! ! ! ! ! "
"! ! ! ! ! ! ! ! ! ! ! ! ! ! ! ! ! ! ! ! ! ! ! ! ! ! ! ! ! ! ! ! ! ! ! ! ! ! ! ! ! ! ! ! ! ! ! ! ! ! ! ! ! ! ! ! ! ! ! ! ! ! ! ! "
"! ! ! ! ! ! ! ! ! ! ! ! ! ! ! ! ! ! ! ! ! ! ! ! ! ! ! ! ! ! ! ! ! ! ! ! ! ! ! ! ! ! ! ! ! ! ! ! ! ! ! ! ! ! ! ! ! ! ! ! ! ! ! ! "
"! ! ! ! ! ! ! ! ! ! ! ! ! ! ! ! ! ! ! ! ! ! ! ! ! ! ! ! ! ! ! ! ! ! ! ! ! ! ! ! ! ! ! ! ! ! ! ! ! ! ! ! ! ! ! ! ! ! ! ! ! ! ! ! "
"! ! ! ! ! ! ! ! ! ! ! ! ! ! ! ! ! ! ! ! ! ! ! ! ! ! ! ! ! ! ! ! ! ! ! ! ! ! ! ! ! ! ! ! ! ! ! ! ! ! ! ! ! ! ! ! ! ! ! ! ! ! ! ! "};