/* XPM */
static char *topview[]={
"32 32 3 1",
". c None",
"# c #0000ff",
"a c #ff0000",
"................................",
"................................",
"................................",
"................................",
"............######..............",
"..........##......###...........",
"........##...........#..........",
".......#..............##........",
".......#................#.......",
"......#.................#.......",
".....#...................#......",
".....#...................#......",
".....#.aaaaa.aaaaa.aaaaa..#.....",
"....#....a...a...a.a...a..#.....",
"....#....a...a...a.a...a..#.....",
"....#....a...a...a.aaaaa..#.....",
"....#....a...a...a.a......#.....",
"....#....a...a...a.a......#.....",
"....#....a...aaaaa.a.....#......",
".....#...................#......",
".....#...................#......",
"......#.................#.......",
".......#...............#........",
".......##.............##........",
".........#...........#..........",
"..........###......##...........",
".............######.............",
"................................",
"................................",
"................................",
"................................",
"................................"};
