/* XPM */ 
static char * zoommoins16_xpm[] = {
"16 16 8 1",
" 	c None",
"!	c #C0C0C0",
"#	c black",
"$	c #C5C5C5",
"%	c #EBEBEB",
"&	c #F00000",
"'	c #6C6CFF",
"(	c #0000F0",
"!!!!!#!!!!!!!!!!"
"!!!##$##!!!!!!!!"
"!!#%$$$$#!&&&&&!"
"!#%$$$$$$#!!!!!!"
"!#$$$$$$$#!!!!!!"
"#$$$$$$$$$#!!!!!"
"!#$$$$$$$#!!!!!!"
"!#$$$$$$$#!!!!!!"
"!!#$$$$$#!!!!!!!"
"!!!##$##'(!!!!!!"
"!!!!!#!!!'(!!!!!"
"!!!!!!!!!!'(!!!!"
"!!!!!!!!!!!'(!!!"
"!!!!!!!!!!!!'(!!"
"!!!!!!!!!!!!!'(!"
"!!!!!!!!!!!!!!!!"};