/* XPM */
static char *zoomzone[]={
"16 16 6 1",
"a c #000000",
"c c #0000f0",
"d c #6c6cff",
"# c #c0c0c0",
"b c #c5c5c5",
". c #f00000",
"................",
".##############.",
".##aaaaa#######.",
".#aabbbaa######.",
".#abbbbba######.",
".#abbbbba######.",
".#abbbbba######.",
".#aabbbaa######.",
".##aaaaac######.",
".#######dc#####.",
".########dc####.",
".#########dc###.",
".##########dc##.",
".##############.",
".##############.",
"................"};
